<mxfile host="app.diagrams.net" modified="2023-06-11T18:31:02.913Z" agent="Mozilla/5.0 (Windows NT 10.0; Win64; x64) AppleWebKit/537.36 (KHTML, like Gecko) Chrome/113.0.21244.127 Safari/537.36 Avast/113.0.21244.127" version="21.3.8" etag="RaYs1uWNK6PO6nDPVD7I" type="github">
  <diagram name="Page-1" id="WUEUOAhat6odNGVXcMyM">
    <mxGraphModel>
      <root>
        <mxCell id="0" />
        <mxCell id="1" parent="0" />
      </root>
    </mxGraphModel>
  </diagram>
</mxfile>
